<?xml version="1.0" encoding="UTF-8" standalone="no"?>
<!DOCTYPE svg PUBLIC "-//W3C//DTD SVG 1.1//EN" "http://www.w3.org/Graphics/SVG/1.1/DTD/svg11.dtd">
<svg width="100%" height="100%" viewBox="0 0 260 260" version="1.1" xmlns="http://www.w3.org/2000/svg" xmlns:xlink="http://www.w3.org/1999/xlink" xml:space="preserve" xmlns:serif="http://www.serif.com/" style="fill-rule:evenodd;clip-rule:evenodd;stroke-linejoin:round;stroke-miterlimit:2;">
    <g transform="matrix(1,0,0,1,-357.423,-409.423)">
        <g transform="matrix(1,0,0,1,-153,8)">
            <path d="M684.477,401.423L700.175,407.925L655.698,515.302L763.075,470.825L769.577,486.523L662.2,531L769.577,575.477L763.075,591.175L655.698,546.698L700.175,654.075L684.477,660.577L640,553.2L595.523,660.577L579.825,654.075L624.302,546.698L516.925,591.175L510.423,575.477L617.8,531L510.423,486.523L516.925,470.825L624.302,515.302L579.825,407.925L595.523,401.423L640,508.8L684.477,401.423Z"/>
        </g>
    </g>
</svg>
